<mxfile host="app.diagrams.net" modified="2023-11-08T07:39:30.754Z" agent="Mozilla/5.0 (X11; Ubuntu; Linux x86_64; rv:109.0) Gecko/20100101 Firefox/119.0" etag="bWetGlk7JbQZjhnoF4bp" version="22.0.8" type="github">
  <diagram id="R2lEEEUBdFMjLlhIrx00" name="Page-1">
    <mxGraphModel dx="1434" dy="739" grid="1" gridSize="10" guides="1" tooltips="1" connect="1" arrows="1" fold="1" page="1" pageScale="1" pageWidth="850" pageHeight="1100" math="0" shadow="1" extFonts="Permanent Marker^https://fonts.googleapis.com/css?family=Permanent+Marker">
      <root>
        <mxCell id="0" />
        <mxCell id="1" parent="0" />
        <mxCell id="wPnlc7OekCiJpxB_j1T2-22" style="edgeStyle=orthogonalEdgeStyle;rounded=0;orthogonalLoop=1;jettySize=auto;html=1;endArrow=none;endFill=0;" edge="1" parent="1" source="wPnlc7OekCiJpxB_j1T2-1" target="wPnlc7OekCiJpxB_j1T2-17">
          <mxGeometry relative="1" as="geometry" />
        </mxCell>
        <mxCell id="wPnlc7OekCiJpxB_j1T2-1" value="POKEMON" style="whiteSpace=wrap;html=1;align=center;rounded=0;glass=0;shadow=1;" vertex="1" parent="1">
          <mxGeometry x="170" y="290" width="100" height="40" as="geometry" />
        </mxCell>
        <mxCell id="wPnlc7OekCiJpxB_j1T2-2" value="TIPO" style="whiteSpace=wrap;html=1;align=center;rounded=0;shadow=1;" vertex="1" parent="1">
          <mxGeometry x="590" y="290" width="100" height="40" as="geometry" />
        </mxCell>
        <mxCell id="wPnlc7OekCiJpxB_j1T2-6" style="rounded=0;orthogonalLoop=1;jettySize=auto;html=1;entryX=0;entryY=0.75;entryDx=0;entryDy=0;edgeStyle=orthogonalEdgeStyle;endArrow=oval;endFill=0;sketch=1;curveFitting=1;jiggle=2;" edge="1" parent="1" source="wPnlc7OekCiJpxB_j1T2-3" target="wPnlc7OekCiJpxB_j1T2-1">
          <mxGeometry relative="1" as="geometry" />
        </mxCell>
        <mxCell id="wPnlc7OekCiJpxB_j1T2-3" value="Type" style="ellipse;shape=doubleEllipse;margin=3;whiteSpace=wrap;html=1;align=center;rounded=0;shadow=1;" vertex="1" parent="1">
          <mxGeometry x="30" y="190" width="100" height="40" as="geometry" />
        </mxCell>
        <mxCell id="wPnlc7OekCiJpxB_j1T2-8" style="edgeStyle=orthogonalEdgeStyle;rounded=0;orthogonalLoop=1;jettySize=auto;html=1;endArrow=none;endFill=0;sketch=1;curveFitting=1;jiggle=2;" edge="1" parent="1" source="wPnlc7OekCiJpxB_j1T2-7" target="wPnlc7OekCiJpxB_j1T2-1">
          <mxGeometry relative="1" as="geometry" />
        </mxCell>
        <mxCell id="wPnlc7OekCiJpxB_j1T2-7" value="&lt;div&gt;nÂºpokedex&lt;/div&gt;" style="ellipse;whiteSpace=wrap;html=1;align=center;fontStyle=4;rounded=0;shadow=1;" vertex="1" parent="1">
          <mxGeometry x="170" y="190" width="100" height="40" as="geometry" />
        </mxCell>
        <mxCell id="wPnlc7OekCiJpxB_j1T2-10" style="edgeStyle=orthogonalEdgeStyle;rounded=0;orthogonalLoop=1;jettySize=auto;html=1;endArrow=none;endFill=0;" edge="1" parent="1" source="wPnlc7OekCiJpxB_j1T2-9" target="wPnlc7OekCiJpxB_j1T2-1">
          <mxGeometry relative="1" as="geometry" />
        </mxCell>
        <mxCell id="wPnlc7OekCiJpxB_j1T2-9" value="name" style="ellipse;whiteSpace=wrap;html=1;align=center;" vertex="1" parent="1">
          <mxGeometry x="30" y="380" width="100" height="40" as="geometry" />
        </mxCell>
        <mxCell id="wPnlc7OekCiJpxB_j1T2-26" style="edgeStyle=orthogonalEdgeStyle;rounded=0;orthogonalLoop=1;jettySize=auto;html=1;entryX=0.5;entryY=0;entryDx=0;entryDy=0;" edge="1" parent="1" source="wPnlc7OekCiJpxB_j1T2-12" target="wPnlc7OekCiJpxB_j1T2-2">
          <mxGeometry relative="1" as="geometry" />
        </mxCell>
        <mxCell id="wPnlc7OekCiJpxB_j1T2-12" value="&lt;div&gt;id_type&lt;/div&gt;" style="ellipse;whiteSpace=wrap;html=1;align=center;fontStyle=4;" vertex="1" parent="1">
          <mxGeometry x="560" y="200" width="100" height="40" as="geometry" />
        </mxCell>
        <mxCell id="wPnlc7OekCiJpxB_j1T2-16" style="edgeStyle=orthogonalEdgeStyle;rounded=0;orthogonalLoop=1;jettySize=auto;html=1;entryX=1;entryY=0.75;entryDx=0;entryDy=0;" edge="1" parent="1" source="wPnlc7OekCiJpxB_j1T2-15" target="wPnlc7OekCiJpxB_j1T2-2">
          <mxGeometry relative="1" as="geometry" />
        </mxCell>
        <mxCell id="wPnlc7OekCiJpxB_j1T2-15" value="&lt;div&gt;name&lt;/div&gt;" style="ellipse;whiteSpace=wrap;html=1;align=center;" vertex="1" parent="1">
          <mxGeometry x="670" y="220" width="100" height="40" as="geometry" />
        </mxCell>
        <mxCell id="wPnlc7OekCiJpxB_j1T2-23" style="edgeStyle=orthogonalEdgeStyle;rounded=0;orthogonalLoop=1;jettySize=auto;html=1;exitX=1;exitY=0.5;exitDx=0;exitDy=0;endArrow=none;endFill=0;" edge="1" parent="1" source="wPnlc7OekCiJpxB_j1T2-17" target="wPnlc7OekCiJpxB_j1T2-2">
          <mxGeometry relative="1" as="geometry" />
        </mxCell>
        <mxCell id="wPnlc7OekCiJpxB_j1T2-17" value="have" style="shape=rhombus;perimeter=rhombusPerimeter;whiteSpace=wrap;html=1;align=center;" vertex="1" parent="1">
          <mxGeometry x="365" y="280" width="120" height="60" as="geometry" />
        </mxCell>
        <mxCell id="wPnlc7OekCiJpxB_j1T2-24" value="(M:N)" style="text;html=1;align=center;verticalAlign=middle;resizable=0;points=[];autosize=1;strokeColor=none;fillColor=none;" vertex="1" parent="1">
          <mxGeometry x="400" y="240" width="50" height="30" as="geometry" />
        </mxCell>
        <mxCell id="wPnlc7OekCiJpxB_j1T2-25" value="(1,N)" style="text;html=1;align=center;verticalAlign=middle;resizable=0;points=[];autosize=1;strokeColor=none;fillColor=none;" vertex="1" parent="1">
          <mxGeometry x="265" y="288" width="50" height="30" as="geometry" />
        </mxCell>
        <mxCell id="wPnlc7OekCiJpxB_j1T2-27" value="(N,1)" style="text;html=1;align=center;verticalAlign=middle;resizable=0;points=[];autosize=1;strokeColor=none;fillColor=none;" vertex="1" parent="1">
          <mxGeometry x="530" y="280" width="50" height="30" as="geometry" />
        </mxCell>
      </root>
    </mxGraphModel>
  </diagram>
</mxfile>
